<?xml version="1.0" encoding="UTF-8"?>
<svg id="Layer_1" data-name="Layer 1" xmlns="http://www.w3.org/2000/svg" viewBox="0 0 595.28 841.89">
  <defs>
    <style>
      .cls-1 {
        fill: #f37273;
        stroke-width: 0px;
      }
    </style>
  </defs>
  <path class="cls-1" d="m334.01,364.41l-2.24-19.9-11.77-19.9s-2.52-7.01-14.01-8.13-20.46,2.52-20.46,2.52l-15.7,9.25s-19.62,12.89-19.9,28.03,0,28.03,0,28.03c0,0,.84,14.58,3.64,16.82s10.65,8.13,10.65,8.13l7.29,4.48h18.78s0,2.8,13.17-10.93"/>
  <path class="cls-1" d="m437.96,333.15l-13.17,1.12s-11.77,6.45-19.06,17.1-6.73,8.41-8.69,15.7l-1.96,7.29s14.58,20.18,16.26,28.87-1.12,16.54,2.24,19.9,9.25,11.49,17.1,12.05,19.9,0,19.9,0c0,0,8.97,1.4,15.14-6.45s7.85-11.77,7.85-11.77l3.64-40.64s2.52-12.89-10.37-24.95-28.87-18.22-28.87-18.22Z"/>
  <path class="cls-1" d="m505.93,153.33s21.18-1.83,34.78,15.69,9.94,9.15,15.43,20.92,6.01,24.84,6.01,24.84c0,0-4.18,16.48-11.25,24.06s-12.29,12.55-12.29,12.55c0,0-2.35,5.75-15.17,6.54s-17.52,0-17.52,0c0,0-10.46-2.62-12.81-9.94s-6.8-13.86-6.8-13.86c0,0-9.94-8.11-14.91-9.41s-10.98-2.09-10.98-2.09c0,0-12.29-7.32-11.51-14.91s0-10.98,3.66-19.88,3.66-9.94,8.63-14.38,6.01-9.15,10.98-12.03,7.06-7.69,12.03-8.16,21.71.05,21.71.05Z"/>
  <path class="cls-1" d="m274.01,121.89c13.7,2.41,25.69,7.55,25.69,7.55,0,0,10.06,5.78,12.2,10.28s5.57,12.63,6.85,17.34,2.57,9.85,2.57,16.7,3,13.27,0,17.77,3.21,4.28-5.78,7.07-13.27,2.36-16.27,4.71-3.85-1.28-10.06,4.07-4.07-2.36-10.28,5.57-6.85,6.64-8.99,11.13-.21,4.92-6.64,5.57-4.07,0-14.99-1.5-12.42-.86-12.42-.86l-5.14,8.35s-11.35,13.06-17.77,28.48-7.49,15.84-10.92,28.69-7.92,21.84-8.14,37.47,0,35.54,0,35.54c0,0,1.28,12.63,6.64,24.41s11.99,23.55,15.84,27.19,3.64,5.14,10.92,12.42,8.56,10.71,15.63,14.13,4.23,5.14,15.28,7.92,7.41,4.71,14.9,5.35,12.42,3.21,12.42,3.21c0,0,.43,1.71,3.43,4.5s-.21,0,4.28,7.92,7.71,14.77,7.71,14.77c0,0,1.93,3,8.14,5.99s13.54,3.64,13.54,3.64h8.09s5.78-4.28,12.85-4.07,11.56,2.14,19.27,5.14,12.63,3,13.92,3.43,10.06,0,10.06,0c0,0,10.92-7.49,14.99-10.71l4.07-3.21s1.07-4.28,4.28-4.92,5.78-3,5.78-3h20.28s28.11-4.92,39.67-12.85,8.56.64,25.26-19.48,8.14,2.15,20.13-26.65c11.99-28.8,7.28-13.25,13.06-36.66s3.64,2.5,5.78-23.41l2.14-25.91s5.78,14.9,7.92,30.14,3.85,20.81,4.07,35.16-.21,14.99,0,30.4.43,18.63-1.28,34.9-1.71,17.13-3.64,32.12-.64,10.28-5.57,28.48-2.57,12.42-7.92,29.55-2.36,11.35-13.27,37.9-1.93,10.06-14.99,35.97-8.35,21.62-13.92,27.19,12.85-7.07-7.49,5.78-24.19,16.91-31.9,19.7-4.71,1.93-15.84,5.99-1.71,5.35-17.77,3.85-17.98-2.57-20.13-4.28-10.49-11.56-10.49-17.56l-.24-29.17s-2.74-15.09,3.43-26.75,4.34-25.61,4.34-25.61l-1.37-16.46.23-7.32s1.14,4.12-.46-3.89-5.03-15.09-5.03-15.09c0,0,5.03,2.97-1.14-.69s-3.2-5.49-12.58-4.12-9.83-.46-14.86,8.46-5.49,1.14-8.69,20.81c0,0-1.53,8.69-2.22,21.44s-3.01,12.98-.7,23.19,1.85,10.67,3.48,20.87-.7-.23,3.25,15.07,0,10.67,5.56,20.64,1.16,4.17,5.8,11.83,5.92-3.06,5.28,9.25-1.57,14.63-1.57,14.63c0,0,.46,4.99-11.83,9.27s-29.91,4.28-29.91,4.28h-18.55s-13.68-.81-29.91-8.46c0,0-13.83-1.58-26.3-14.06s-33.17-33.17-33.17-33.17c0,0-10.49-19.56-16.73-28.07s-7.09-9.36-15.02-26.93-6.8-10.77-13.89-30.33l-7.09-19.56s-5.67-3.12-2.27,13.32-3.4,11.91,4.82,28.63,11.34,21.55,6.52,30.33,3.97,5.95-8.79,11.91,11.91,5.95-15.88,4.54-20.41.57-20.41.57c0,0-17.01-3.4-26.36-8.79s-14.74-6.8-24.1-18.43-15.02-17.29-22.96-33.45-6.8-11.62-13.04-29.48-4.82-9.64-8.79-28.07-2.83-60.1-2.83-60.1l-1.98-23.25s-5.95-11.91-5.67-28.92-4.54-23.53-2.27-48.48,9.07-51.59,18.14-70.59,9.92-25.8,28.07-43.66,18.99-20.69,38.55-32.88l19.56-12.19,11.34-2.83s5.1-3.97-5.95,6.52-13.32,11.06-18.43,17.86-13.32,14.17-13.32,14.17c0,0-7.65,5.39-10.77,13.04s-9.64,22.4-9.64,22.4c0,0-7.65,4.82-10.21,22.96s-7.09,28.07-5.67,41.96,4.25,38.27,6.24,44.51,5.95,31.47,5.95,31.47c0,0,1.7,7.09,14.74,20.13s12.19,16.16,20.98,30.62,24.1,25.14,24.1,25.14c0,0-6.24-7.28-6.8-27.69s-1.13-23.81-.85-28.92,2.27.85,3.69-14.17-1.7-57.55,3.97-83.91,4.82-32.6,15.59-51.59,11.91-22.4,28.07-39.69,20.41-24.1,29.2-33.17l8.79-9.07s.28,7.37-5.39-8.79-8.5-27.21-2.55-38.84,3.97-14.17,16.44-24.38,16.07-17.16,30.05-17.16h13.98Z"/>
  <path class="cls-1" d="m347,444.05c22.41,3.15,25.22-.7,31.87,7s7.7,6.3,7,11.91-3.85,7.7-3.85,7.7c0,0-8.22-.35-15.49,2.8s-16.73,10.86-16.73,10.86l-5.95-8.06s-6.65-6.3-14.36-8.76-9.11-1.75-12.96-6.3-4.2-9.81-4.2-9.81c0,0,3.15-6.65,13.66-7.35s21.01,0,21.01,0Z"/>
</svg>